<svg id="Capa_1" data-name="Capa 1" xmlns="http://www.w3.org/2000/svg" viewBox="0 0 367.43 299.81"><defs><style>.cls-1{fill:#29284a;}.cls-2{fill:#9fc4e8;}.cls-3{fill:#f6a857;}.cls-4{fill:#f9f8f9;}.cls-5{fill:#9d4e98;}.cls-6{fill:#fff;}</style></defs><path class="cls-1" d="M274,465.19c1.53-.44,3.08-.83,4.6-1.33,1.76-.58,2.13-1.4,1.33-3.08a15.69,15.69,0,0,0-1.64-2.64c-13.45-18-21.4-38.23-24.88-60.32-.66-4.18-1.1-8.4-1.51-12.61a6.52,6.52,0,0,0-3.16-5.32,34.33,34.33,0,0,1-7.26-5.85,18.85,18.85,0,0,1-5.08-10.38,3,3,0,0,0-2-2.65A21.13,21.13,0,0,1,222.44,348c-1.06-3-1.87-6.1-2.77-9.16a53.69,53.69,0,0,0-3.55-8.89,17.15,17.15,0,0,1-1.66-7.16c-.14-4.13,2.48-6.06,6.42-4.83a32.32,32.32,0,0,1,11.92,7c5.93,5.33,10.14,11.66,11.56,19.66.65,3.66.29,7.33.26,11,0,1.76-.08,3.52,0,5.28.19,4.44,2.57,7.58,6.09,10a1.18,1.18,0,0,0,.45.14c.07,0,.15,0,.27,0,.53-.5.29-1.18.29-1.77-.12-21,3.89-41.3,10.36-61.18,3-9.18,7.71-17.53,12.91-25.6a120,120,0,0,1,8.53-12.15c1.32-1.59,2.34-3.4,4.06-4.66,1.11-.81,1.13-1.94.58-3.21a28.2,28.2,0,0,1-.86-20.17A37.64,37.64,0,0,1,303,221.4a6.11,6.11,0,0,1,6.36-.63,3.19,3.19,0,0,1,2,2.76,12.87,12.87,0,0,1-.31,4.75c-2.48,8.56-7,15.57-15.16,19.73a2.44,2.44,0,0,0-1.52,2.2c-.15,1.91-.54,3.82-.05,5.72.26,1,.77,1.17,1.53.54s1.14-1.12,1.73-1.67c13.28-12.38,28.65-21.29,45.56-27.75a146.86,146.86,0,0,1,117.4,6.58,132.82,132.82,0,0,1,30.9,22.08c.51.47.93,1.26,1.78.9s.88-1.26.81-2.07c-.1-1.28-.25-2.55-.38-3.82a3.65,3.65,0,0,0-1.89-2.88c-1.24-.73-2.49-1.45-3.66-2.28-7.12-5-10.7-12.1-11.61-20.63a4.34,4.34,0,0,1,4.32-4.69,8.29,8.29,0,0,1,4.24,1.47c7.23,4.36,11.89,10.78,14.89,18.52,2,5.16,2.94,10.44,1.87,16a23,23,0,0,1-1.92,5.9,2.29,2.29,0,0,0,.38,2.83c2.64,3,4.79,6.4,7.59,9.28a7.46,7.46,0,0,1,.87,1.14,155.44,155.44,0,0,1,26.76,75,153.19,153.19,0,0,1,.93,18.67,3.12,3.12,0,0,0,.3,2,11.93,11.93,0,0,0,6.3-7.38,17.68,17.68,0,0,0,.58-5.7c-.07-2.88-.11-5.76-.17-8.63-.19-8.13,3-14.89,8.29-20.86a36.63,36.63,0,0,1,13.62-10,10.56,10.56,0,0,1,3.7-.93,3.22,3.22,0,0,1,3.59,2.51,11.27,11.27,0,0,1,.53,3.3c-.07,7.91-1.17,15.61-4.79,22.77a30.82,30.82,0,0,1-14.85,14.74,2.72,2.72,0,0,0-1.78,2.3,20.33,20.33,0,0,1-11,15.71c-3.62,2-4.64,4.59-4.94,8.45-1.43,17.91-5.63,35.13-13.66,51.31a126.67,126.67,0,0,1-12.29,20c-.58.77-1.16,1.53-1.7,2.32-1.14,1.68-1,2.08.87,2.68,1.6.51,3.21,1,4.81,1.45A17.25,17.25,0,0,0,520.7,467c6.59.69,12.69-1,18.44-4,9.1-4.82,15-12.46,18.88-21.8,1.78-1.05,3.56-1.38,5.37-.05a3.79,3.79,0,0,1,1.6,4.2,9.18,9.18,0,0,1-.77,2,51.92,51.92,0,0,1-19,21.41c-9,5.66-18.68,7.15-29,5.7a58.73,58.73,0,0,1-13-3.33,3.19,3.19,0,0,0-4,1,152.14,152.14,0,0,1-15.37,14.45A114.79,114.79,0,0,1,470,496.29a148.7,148.7,0,0,1-53.23,19.48,141,141,0,0,1-75.34-8.12,136.61,136.61,0,0,1-51.73-35.08c-.21-.24-.45-.45-.65-.7a3.31,3.31,0,0,0-4.25-1.07,68,68,0,0,1-7.5,2.5c-19.95,5.59-37.2-3-47.31-16.2-2-2.61-3.75-5.38-5.62-8.07a8.7,8.7,0,0,1-1.43-4,3.94,3.94,0,0,1,1.83-4.13,4,4,0,0,1,4.52-.1c.34.2.64.47,1,.7a34.88,34.88,0,0,0,5,9.2c7.13,10.2,17,15.63,29.35,16.51A15.44,15.44,0,0,0,274,465.19ZM347.78,398c0-2.79.08-5.4,0-8.32.11-3.13.29-6.26.12-9.38a5,5,0,0,0,.24-2.59q.07-14.52.08-29a9.66,9.66,0,0,1,1-4.87c2.81-4.92,6.41-8.63,12.74-7.89a3.87,3.87,0,0,0,.48,0c2,0,2.52-.5,2.73-2.52.14-1.42.12-2.88.34-4.29,1.19-7.7,7.14-12.33,14.5-11.35,2.15.29,2.19.29,2.45-1.88a11.92,11.92,0,0,1,4.87-8.72,12.9,12.9,0,0,1,20.06,7.27,21.39,21.39,0,0,1,.39,2.12c.15,1,.73,1.39,1.69,1a8.25,8.25,0,0,1,4.72-.12c6.65,1.53,10.66,6,11.44,12.78a102.7,102.7,0,0,1,.29,11.5c0,2.72-.1,5.44-.06,8.15,0,1.76.32,2,2,2a13.43,13.43,0,0,1,12.31,6.49c.88,1.32,1.58,2.77,2.36,4.16.69,8.54.29,17.1.43,25.65a39.73,39.73,0,0,0,.05,8,29.63,29.63,0,0,0,2.9-3.2q12.95-16.15,25.88-32.3c1.58-2,3.31-3.48,6-3.07a9.85,9.85,0,0,1,3.07,5,14.23,14.23,0,0,0,2.61,4.82c2.8,3.7,6.89,3.61,9.47-.26a40.56,40.56,0,0,0,2.19-4.25,9.85,9.85,0,0,1,1.95-3,3.61,3.61,0,0,1,5.34,0,9.5,9.5,0,0,1,1.92,2.73c1.37,2.7,2.72,5.41,4.09,8.11a19.27,19.27,0,0,0,3.46,5.14,6.05,6.05,0,0,0,8.43.56,11.49,11.49,0,0,0,3.08-3.61,24.32,24.32,0,0,0,2.88-8.31c.82-5.17.34-10.34-.07-15.5a10.31,10.31,0,0,0-.3-3.08,3,3,0,0,0-.07-.75,15.11,15.11,0,0,0-1-6,9.53,9.53,0,0,0-.1-2.87,152.91,152.91,0,0,0-5.14-20.42c-16.43-49.83-62.19-90-125.89-90.06a131.81,131.81,0,0,0-42.38,7c-20.12,6.75-37.86,17.35-52.58,32.77A130.86,130.86,0,0,0,265.33,327c-.95,4-2,8.06-2,12.26a22.3,22.3,0,0,0-1.19,7.72,48,48,0,0,0,.36,20,16.87,16.87,0,0,0,4.81,8.95c2.82,2.65,6.25,2.56,8.94-.21A13.88,13.88,0,0,0,278,373.4a54.38,54.38,0,0,0,3.15-6.18,37.7,37.7,0,0,1,3.09-6c2.38-3.37,5.74-3.25,7.86.29.4.68.7,1.43,1.07,2.14.6,1.13,1.14,2.3,1.83,3.37,2.58,4,7.4,4,10.05,0a16.89,16.89,0,0,0,2-4.32,10.24,10.24,0,0,1,3.34-5.13c2.35-.43,4,.69,5.33,2.45m23.41,83a20,20,0,0,0,1.1-10.56,24.77,24.77,0,0,0-7.16-14.06,48.75,48.75,0,0,0-18.71-12.21c-9.44-3.45-19.05-6.44-28.73-9.18a21.24,21.24,0,0,0-4.47-.77c-2-.12-3,1.26-2.45,3.12a7.59,7.59,0,0,0,.45,1.11c3.67,7.6,5.79,15.7,7.67,23.88,1.17,5.05,2.19,10.16,4.25,14.95,1.33,3.08,2.8,6.09,5.32,8.42a23.26,23.26,0,0,0,14.06,11.14,32.74,32.74,0,0,0,9.24,1c2.34,0,2.66.25,2.95,2.5.8,6.17,1.41,12.37.75,18.61a44.14,44.14,0,0,0-.15,7.18,3.52,3.52,0,0,0,3.63,3.65c2.13,0,3.42-1.23,3.59-3.61.66-9.41.91-18.82-1-28.14a3.43,3.43,0,0,1,1.62-4A18.06,18.06,0,0,0,339.19,443.06Zm152.17,5.25a13.92,13.92,0,0,0,2.82-3.82c3.2-5.17,4.86-10.91,6.2-16.77,2.14-9.42,4-18.91,8.58-27.59,1-1.92-.2-3.69-2.42-3.79a15.65,15.65,0,0,0-5.41.87c-5.41,1.7-10.85,3.3-16.24,5.05-6.3,2.05-12.64,4-18.5,7.21s-11.09,7.3-14.83,13c-3.89,5.89-5.16,12.27-3.08,19.16a20.78,20.78,0,0,0,.83,4.21,18,18,0,0,0,7.38,10.29c1.19.81,2.11,1.67,1.76,3.31A79.92,79.92,0,0,0,457,473.2a104.89,104.89,0,0,0,.59,15.55c.23,2.05,1.12,2.93,2.71,3.14a3.92,3.92,0,0,0,4.14-2.57,6.18,6.18,0,0,0,.34-2.59c-.13-3.43-.3-6.86-.4-10.29a81.46,81.46,0,0,1,1.08-14.55c.29-1.87.61-2.1,2.51-2.1,1.52,0,3,.1,4.55,0A23.67,23.67,0,0,0,491.36,448.31Zm-74.27-78.94q0-17.75,0-35.5a30.46,30.46,0,0,0-.2-3.82A4.65,4.65,0,0,0,414,326.2a3.6,3.6,0,0,0-5.36,3.08,19.55,19.55,0,0,0-.12,2.16q-.06,17-.11,34.05c0,4.64,0,9.28-.05,13.91a22.55,22.55,0,0,1-.2,3.59,4.16,4.16,0,0,1-4.35,3.33,3.77,3.77,0,0,1-3.79-3.59,19.19,19.19,0,0,1-.1-2.4q-.06-19.79-.11-39.57c0-6.08,0-12.15,0-18.23,0-1.52-.08-3-.2-4.55a8,8,0,0,0-.45-2.1,4.53,4.53,0,0,0-4.75-2.89q-2.88.38-3.41,3.76a9.39,9.39,0,0,0-.09,1.19c-.05,2.08-.13,4.16-.13,6.24q0,27.82,0,55.65a11.69,11.69,0,0,1-.26,3.33,4,4,0,0,1-7.77.26,10.13,10.13,0,0,1-.39-3.55q0-23.87,0-47.73a14.41,14.41,0,0,0-.14-2.63,4.11,4.11,0,0,0-8-.87,8.59,8.59,0,0,0-.54,3.76q0,25.91-.06,51.81a13.89,13.89,0,0,1-.22,3.58,4,4,0,0,1-4.08,3.32,4,4,0,0,1-3.85-3.61,20.14,20.14,0,0,1-.18-3.11q0-16.67,0-33.34a11.39,11.39,0,0,0-.56-4.49,3.86,3.86,0,0,0-6.91-.9,7.37,7.37,0,0,0-1.31,4.75q0,31.79.07,63.57a20.17,20.17,0,0,0,2.64,10.34c7.78,13.22,19.19,20.77,34.7,21.31,9.86.34,18.65-3.11,26.57-8.86a32.17,32.17,0,0,0,13.47-21.83,65.51,65.51,0,0,0,.33-10.76c-.07-12.16,0-24.31-.07-36.46a17.45,17.45,0,0,0-.07-2.4,5.68,5.68,0,0,0-3.14-4.54c-2.58-1.3-4.91,0-5.14,2.83-.06.72,0,1.44,0,2.16q0,18.83.08,37.65a18.65,18.65,0,0,1-.44,5.48,4,4,0,0,1-4.12,3,4,4,0,0,1-4-3.42,17.92,17.92,0,0,1-.19-3.11Q417.08,387.37,417.09,369.37ZM393.67,480.11h50.12a17.24,17.24,0,0,0,2.39-.12c3-.45,4.11-3.36,2.25-5.75a5.23,5.23,0,0,0-4.47-1.88c-2.71,0-5.43.07-8.15.07H345.39a23.26,23.26,0,0,0-3.82.23,5.05,5.05,0,0,0-2,.75,3.49,3.49,0,0,0-1.65,3.49,3.15,3.15,0,0,0,2.55,2.84,8.38,8.38,0,0,0,2.13.23q13.06.09,26.13.15C377.05,480.13,385.36,480.11,393.67,480.11Zm27.93-34.29c-8.83,5-17.77,7.94-27.61,7.87s-18.85-3.42-27.62-8.39c0,5.79,0,11.27,0,16.75A1.47,1.47,0,0,0,368,463.7l2.15,0h43.36c2.08,0,4.15.1,6.23.06,1.77,0,1.88-.2,1.88-1.93v-16Zm-28.1,50.3v.08h35.73a9.37,9.37,0,0,0,1.91-.19c2.06-.43,3-1.53,3.09-3.37a3.61,3.61,0,0,0-2.93-3.85,12,12,0,0,0-3.33-.24q-22.91,0-45.81,0c-7.91,0-15.83,0-23.74,0a6.64,6.64,0,0,0-3.27.55,3.65,3.65,0,0,0-2.08,3.51,3.34,3.34,0,0,0,2.57,3.11,7.56,7.56,0,0,0,2.36.32c2.64,0,5.28,0,7.92,0ZM224.16,329.19c-.25.43-.38.56-.39.7a3.77,3.77,0,0,0,0,.95,36.51,36.51,0,0,0,3.46,11.62,31.4,31.4,0,0,0,7.28,9.38c.36.33.75.71,1.25.51s.55-.74.58-1.23a20.43,20.43,0,0,0-.38-5.46A24.21,24.21,0,0,0,224.16,329.19Zm339.94.1a11.61,11.61,0,0,0-4.7,3.08,27.14,27.14,0,0,0-7.3,13.23,17,17,0,0,0-.41,4.76c0,.63,0,1.4.61,1.73s1.14-.36,1.58-.76a29.93,29.93,0,0,0,8.77-13.21A25.81,25.81,0,0,0,564.1,329.29Z" transform="translate(-210.14 -217.86)"/><path class="cls-1" d="M268.18,269.48a25.68,25.68,0,0,1-1.69,8.76,59.24,59.24,0,0,1-10.42,18.46,13,13,0,0,0-3.37,8.68c0,4.47-2.69,4.5-5.83,4.09-.69-.1-.92-.57-1.09-1.12a9.09,9.09,0,0,1-.72-4,5.78,5.78,0,0,0-1.44-4.4,96.93,96.93,0,0,1-8.35-13.11c-3.57-6.61-4.21-13.68-3.59-20.92.59-6.91,6.48-13.1,13.73-14.95C257.27,248,268.2,256.67,268.18,269.48Zm-8.21.06c0-.56,0-1.12,0-1.68a10.37,10.37,0,0,0-8.63-9.25c-5.36-.63-9.29,1.89-10.77,7a17.25,17.25,0,0,0-.66,6.86c.76,6.91,3.52,13,7.36,18.73,1.1,1.64,1.63,1.64,2.81,0a71.46,71.46,0,0,0,6.22-9.65C258.2,277.75,260,273.92,260,269.54Z" transform="translate(-210.14 -217.86)"/><path class="cls-1" d="M538.3,250.45c9.23-.31,16.62,7.18,17.75,15.64,1.1,8.25-.75,15.86-4.64,23.08a62.54,62.54,0,0,1-5.53,8.41c-2,2.65-3.55,5.44-3.4,9,.08,2.13-1.78,3.35-4.43,3.24a3.4,3.4,0,0,1-3-3.49c.64-4.17-1.42-7.18-3.75-10.22a62.84,62.84,0,0,1-10-17.89,28,28,0,0,1-1.55-9.66A18.25,18.25,0,0,1,538.3,250.45Zm9.94,20.61a20,20,0,0,0-1.24-6.29c-1.72-4.5-5.19-6.61-10.15-6.18a9.72,9.72,0,0,0-8.72,8,15.14,15.14,0,0,0,.31,6.63c1.67,6.91,5.61,12.63,9.67,18.27.89,1.24,1.46,1.2,2.37-.1a44.19,44.19,0,0,0,6.6-13.2A38.32,38.32,0,0,0,548.24,271.06Z" transform="translate(-210.14 -217.86)"/><path class="cls-1" d="M240.69,409.35c.48-6.82-2.06-12.5-6.66-17.34a16.6,16.6,0,0,0-9-4.68,7.13,7.13,0,0,1-3.08-1.22,4,4,0,0,1-1.37-4.71c.46-1.51,1.51-2.26,3.48-2.38a14.26,14.26,0,0,1,6.77,1.08c14.44,6.24,22.1,22.13,17.6,36.73A18.17,18.17,0,0,1,244.7,424c-2.25,2.44-5.29,3.2-8.45,3.41-9.73.65-21.89-5.24-25.37-17a18.85,18.85,0,0,1-.15-9.94c1.44-5.89,7.49-8.65,13-6.18a9.39,9.39,0,0,1,2.7,1.49,7.4,7.4,0,0,1-2.91,3.11l-2.63,1.67a5.36,5.36,0,0,0-2.5,5.76c1.23,9,10.68,14,18.54,12.61.6-.11,1.12-.33,1.28-.92C239.07,415.16,240.51,412.43,240.69,409.35Z" transform="translate(-210.14 -217.86)"/><path class="cls-1" d="M561.1,395.8a9.47,9.47,0,0,1,14.46,2.08,14.05,14.05,0,0,1,1.76,9.92,22,22,0,0,1-12.72,16.63,26.47,26.47,0,0,1-10.33,2.84c-8.32.36-12-1.85-14.43-9.95a30.52,30.52,0,0,1,14.67-36.08,16.66,16.66,0,0,1,9.43-2.21c2.2.15,3.33,1,3.64,2.78a3.86,3.86,0,0,1-2.41,4.67,14.36,14.36,0,0,1-2,.68c-7.94,2.2-12.85,7.4-15,15.25a13.51,13.51,0,0,0-.67,6.37,6.29,6.29,0,0,0,.32,3.3,29,29,0,0,1,1.43,4.31c.36,2.21,1.74,2.85,3.66,2.93A16.51,16.51,0,0,0,564.46,415a14,14,0,0,0,4.72-7.07c.93-3.43.2-5.47-2.76-7.38A20.07,20.07,0,0,1,561.1,395.8Z" transform="translate(-210.14 -217.86)"/><path class="cls-2" d="M558,441.11c-3.89,9.34-9.77,17-18.87,21.8-5.76,3-11.86,4.7-18.44,4a17.2,17.2,0,0,1-6.84-1.87,3.37,3.37,0,0,0,2.93-1.3c1.05-1.29,2.14-2.57,3.27-3.8a59,59,0,0,1,15.65-11.66,68.08,68.08,0,0,1,12-5.3,26.26,26.26,0,0,1,8.41-1.58A11,11,0,0,0,558,441.11Z" transform="translate(-210.14 -217.86)"/><path class="cls-2" d="M273.93,465.14a15.41,15.41,0,0,1-9.38,2c-12.35-.88-22.23-6.31-29.35-16.51a34.91,34.91,0,0,1-5-9.2,23.67,23.67,0,0,1,11.39,2.1c5.29,2.22,10.62,4.39,15.22,7.9,3.35,2.56,6.52,5.35,9.81,8C269.05,461.34,271.25,463.55,273.93,465.14Z" transform="translate(-210.14 -217.86)"/><path class="cls-2" d="M561.1,395.8a20.07,20.07,0,0,0,5.32,4.78c3,1.91,3.69,3.95,2.76,7.38a14,14,0,0,1-4.72,7.07,16.51,16.51,0,0,1-11.63,4.29c-1.92-.08-3.3-.72-3.66-2.93a29,29,0,0,0-1.43-4.31,6.29,6.29,0,0,1-.32-3.3c2-3,3.73-6.33,6.58-8.73C556.14,398.26,558.31,396.51,561.1,395.8Z" transform="translate(-210.14 -217.86)"/><path class="cls-2" d="M240.69,409.35c-.18,3.08-1.62,5.81-2.44,8.71-.16.59-.68.81-1.28.92-7.86,1.4-17.31-3.65-18.54-12.61a5.36,5.36,0,0,1,2.5-5.76l2.63-1.67a7.4,7.4,0,0,0,2.91-3.11c5.61,2.15,9.47,6.27,12.62,11.19C239.6,407.82,239.79,408.83,240.69,409.35Z" transform="translate(-210.14 -217.86)"/><path class="cls-3" d="M442.9,388.12c-.19-5.6-.26-17.09-.25-23a26.35,26.35,0,0,1-.18-2.69c-.78-1.39-1.48-2.84-2.36-4.16a13.46,13.46,0,0,0-12.32-6.49c-1.62.06-1.92-.19-2-1.95,0-2.71.07-5.43.07-8.15a100.31,100.31,0,0,0-.3-11.5c-.77-6.79-4.78-11.25-11.44-12.78a8.16,8.16,0,0,0-4.72.12c-1,.35-1.53,0-1.69-1.05a19,19,0,0,0-.38-2.11,12.9,12.9,0,0,0-20.06-7.27,11.93,11.93,0,0,0-4.88,8.72c-.26,2.17-.29,2.17-2.44,1.88-7.36-1-13.31,3.65-14.51,11.35-.22,1.41-.19,2.86-.34,4.29-.2,2-.74,2.5-2.72,2.52l-.48,0c-6.33-.74-9.93,3-12.74,7.89a9.54,9.54,0,0,0-1,4.87c0,9.67,0,19.34-.07,29,0,.86,0,9.93-.45,10.76,0-1-2.19-8.63-2.19-9.58,0-8.38,2.28-18.21,2.25-26.58,0-.59.24,28.69-.4,27.89,0,1.06,0-28.09,0-27.3V372c0,4.23.35,13.41.34,17.63,0,1.13-.93-1.27-1.81-2.34h0c-1.23-1.36-1.23-1.36-2.42-2.84s-2.35-3-3.59-4.4c-10.93-12.55-21.42-25.47-32.07-38.26-1.87-1-1.89-2.64-3.15-4a3,3,0,0,0-.18-.36c-2.58-1.47-1.87-2.62-3.62-4a1.35,1.35,0,0,0-.17-.34c-.57-.45-.51-.68-.81-1.08-2.89-3.29-5.72-6.62-8.3-10.16a17,17,0,0,0-2.31-2.42c-2.74-2.5-5.11-2.5-7.69.22-3.27,3.47-6.61,6.88-9.65,10.59-2.61,3.19-5.18,6.46-8.51,9-.07-4.2,1-8.23,2-12.26a130.69,130.69,0,0,1,33.36-61.39c14.71-15.42,32.45-26,52.58-32.77a131.75,131.75,0,0,1,42.37-7c63.7.1,109.47,40.23,125.9,90.06a155.63,155.63,0,0,1,5.14,20.42,10.23,10.23,0,0,1,.1,2.87c-1-.07-1.31-1.2-2.21-1.44-1.76-1.79-2.17-2.24-4-4.16-2.27-3.28-5-6.15-7.6-9.2-1.48-1.77-3-3.51-4.67-5.13M368.05,278.37v-.06H321.28a21.07,21.07,0,0,0-2.87.11,3.66,3.66,0,0,0-3.33,3c-.77,3.38.81,5.41,4.34,5.54h92.09c.8,0,1.6,0,2.4,0a7.2,7.2,0,0,1,5.12,2.28c.93,1,1.86,2,2.87,2.89a13.88,13.88,0,0,0,10.75,3.76,175.8,175.8,0,0,1,18.93-.08c7.92.29,15.82-.05,23.72-.13a3.33,3.33,0,0,0,3.14-1.85c1.53-3,0-6-3.33-6.36a51.47,51.47,0,0,0-6.45-.4c-11.19.15-22.38.24-33.56.4-4.29.07-7.81-1.31-10.36-4.89a10.24,10.24,0,0,0-7.53-4.14,30.7,30.7,0,0,0-3.84-.07Zm19.08-20.69c-10.87,0-21.75-.16-32.62.09a10.09,10.09,0,0,0-2.14.17,4.6,4.6,0,0,0-3.53,4.06,4.43,4.43,0,0,0,3.52,4,9.86,9.86,0,0,0,2.86.24h40.54c6.4,0,12.8.1,19.19-.14,4.93-.18,8.92,1.19,11.84,5.31a9.45,9.45,0,0,0,8.42,4.16c6.39-.12,12.79,0,19.19,0,1,0,2.08-.07,3.11-.14a2.59,2.59,0,0,0,2.25-1.58,4.65,4.65,0,0,0-3-6.32,7.47,7.47,0,0,0-1.9-.17q-7.91,0-15.83,0c-2.77,0-5.3-.76-7-3-3.74-4.85-8.66-6.72-14.65-6.64C407.28,257.77,397.21,257.68,387.13,257.68Zm-60.93,57.1a5.26,5.26,0,0,0-5.53-5.31c-3,0-5,2.15-5.06,5.41a4.85,4.85,0,0,0,5,5.16A5.28,5.28,0,0,0,326.2,314.78Zm147.85-.18c0-3.23-1.85-5.1-5-5.09s-5.24,2.07-5.19,5.5a4.73,4.73,0,0,0,5.16,5C472.13,320,474.06,317.9,474.05,314.6ZM336.49,342.24a5.07,5.07,0,0,0,5.48-5,5.21,5.21,0,0,0-5.64-5.17c-3.18,0-4.87,1.86-4.83,5.19S333.17,342.26,336.49,342.24Zm115.61,0c3.21,0,5.37-2,5.38-4.87a5.23,5.23,0,0,0-5.31-5.32c-3.21,0-5.07,2-5,5.37C447.2,340.63,448.86,342.24,452.1,342.24Z" transform="translate(-210.14 -217.86)"/><path class="cls-4" d="M417.07,369.32q0,18,0,36a19,19,0,0,0,.18,3.11,4.06,4.06,0,0,0,4,3.42,4,4,0,0,0,4.13-3,19,19,0,0,0,.44-5.48q0-18.83-.09-37.65c0-.72,0-1.44,0-2.16.24-2.83,2.56-4.13,5.15-2.83a5.7,5.7,0,0,1,3.14,4.54,17.45,17.45,0,0,1,.06,2.4c0,12.15,0,24.3.08,36.46a67.8,67.8,0,0,1-.33,10.76,32.22,32.22,0,0,1-13.48,21.83c-7.91,5.75-16.7,9.2-26.56,8.86-15.51-.54-26.92-8.09-34.71-21.31a20.26,20.26,0,0,1-2.63-10.34q-.06-31.79-.08-63.57a7.38,7.38,0,0,1,1.32-4.75,3.86,3.86,0,0,1,6.91.9,11.57,11.57,0,0,1,.55,4.49q0,16.67,0,33.34a19,19,0,0,0,.18,3.11,4,4,0,0,0,7.93.29,14.84,14.84,0,0,0,.22-3.58l.06-51.81a8.73,8.73,0,0,1,.53-3.76,4.12,4.12,0,0,1,8,.87,14.4,14.4,0,0,1,.13,2.63q0,23.87,0,47.73a10.13,10.13,0,0,0,.39,3.55,3.9,3.9,0,0,0,4,2.84,4,4,0,0,0,3.8-3.1,12.06,12.06,0,0,0,.26-3.33q0-27.82,0-55.65c0-2.08.08-4.16.13-6.24a9.39,9.39,0,0,1,.08-1.19c.35-2.26,1.5-3.51,3.41-3.76a4.52,4.52,0,0,1,4.75,2.89,7.58,7.58,0,0,1,.45,2.1c.12,1.51.2,3,.2,4.55,0,6.08,0,12.15,0,18.23q0,19.79.11,39.57a19.19,19.19,0,0,0,.09,2.4,3.78,3.78,0,0,0,3.79,3.59,4.17,4.17,0,0,0,4.36-3.33,22.55,22.55,0,0,0,.2-3.59c0-4.63,0-9.27,0-13.91l.12-34.05a19.53,19.53,0,0,1,.11-2.16,3.6,3.6,0,0,1,5.36-3.08,4.62,4.62,0,0,1,2.87,3.85,28.68,28.68,0,0,1,.21,3.82Q417.08,351.58,417.07,369.32Z" transform="translate(-210.14 -217.86)"/><path class="cls-2" d="M448.45,441.55c-2.08-6.89-.81-13.27,3.08-19.16,3.74-5.67,8.92-9.75,14.83-13s12.2-5.16,18.5-7.21c5.4-1.75,10.84-3.35,16.25-5a15.61,15.61,0,0,1,5.41-.87c2.22.1,3.43,1.87,2.42,3.79-4.56,8.68-6.44,18.17-8.59,27.59-1.33,5.86-3,11.6-6.2,16.77a13.68,13.68,0,0,1-2.81,3.82,8.17,8.17,0,0,1-.63-.69c-1.94-2.54-2.82-2.8-5.7-1.54-.95.42-1.85.93-2.77,1.42-1.34.71-2.63,1.52-4,2.14a18.4,18.4,0,0,1-7.59,2c-1.9,0-2.29-.65-1.48-2.38,1.35-2.9,2.85-5.72,4.46-8.48a102.44,102.44,0,0,1,13.5-18.52c3.18-3.37,6.42-6.67,9.67-10a5.49,5.49,0,0,0,1.53-2.39,3.74,3.74,0,0,0-1.45-4.23c-1.34-1-2.56-.53-3.76.23a15.52,15.52,0,0,0-1.75,1.26,123.84,123.84,0,0,0-13.75,13.64,94.36,94.36,0,0,0-12.35,18.45,64.26,64.26,0,0,0-3.71,8c-.41,1.18-1.12,1.23-1.86.25-.09-.13-.15-.28-.23-.42a22.42,22.42,0,0,1-2.93-13.52,3.73,3.73,0,0,0-2.1-3.92,3.56,3.56,0,0,0-4.21,1.9,7,7,0,0,0-.67,2A69.81,69.81,0,0,0,448.45,441.55Z" transform="translate(-210.14 -217.86)"/><path class="cls-2" d="M296.43,447.71c-2.52-2.33-4-5.34-5.31-8.42-2.07-4.79-3.09-9.9-4.25-15-1.88-8.18-4-16.28-7.67-23.88a6.62,6.62,0,0,1-.45-1.11c-.51-1.86.49-3.24,2.44-3.12a21.22,21.22,0,0,1,4.48.77c9.68,2.74,19.28,5.73,28.72,9.18a48.86,48.86,0,0,1,18.72,12.21,24.83,24.83,0,0,1,7.16,14.06A20,20,0,0,1,339.16,443c-.18-2.46-.34-4.92-.56-7.38a10.4,10.4,0,0,0-1.58-5c-1.18-1.76-2.92-2.12-4.53-1A3.61,3.61,0,0,0,331,433a29.12,29.12,0,0,1-1,9.47,14.14,14.14,0,0,1-2,4.33c-.76,1.06-1.23,1-1.88-.18a5.51,5.51,0,0,1-.31-.65,90,90,0,0,0-8-15,97.26,97.26,0,0,0-18.6-21.41,38.33,38.33,0,0,0-5.26-4.14,3.35,3.35,0,0,0-4.87,3.92,5.68,5.68,0,0,0,1.4,2.48c2.19,2.32,4.29,4.73,6.58,6.95A102.54,102.54,0,0,1,313.82,440c1.68,2.81,3.31,5.65,4.78,8.57,1,2,.3,3-2,3a8.57,8.57,0,0,1-2.13-.26,31,31,0,0,1-8.3-3.61,26.52,26.52,0,0,0-4.93-2.42,3.21,3.21,0,0,0-3.67,1C297.19,446.7,296.83,447.22,296.43,447.71Z" transform="translate(-210.14 -217.86)"/><path class="cls-2" d="M526.17,349c.4,5.16.89,10.33.07,15.5a24.32,24.32,0,0,1-2.88,8.31,11.39,11.39,0,0,1-3.09,3.61,6,6,0,0,1-8.42-.56,19.3,19.3,0,0,1-3.47-5.14q-2-4.05-4.09-8.11a9.31,9.31,0,0,0-1.92-2.73,3.6,3.6,0,0,0-5.33,0,10.07,10.07,0,0,0-2,3,38.73,38.73,0,0,1-2.19,4.25c-2.58,3.87-6.66,4-9.47.26a14,14,0,0,1-2.6-4.82,9.91,9.91,0,0,0-3.07-5c.59-.84,1.16-1.7,1.77-2.54,7-9.56,14.42-18.83,21.71-28.19,1-1.35,1.72-2.06,3.38-.22,3.24,3.61,6.37,7.34,9.53,11s6.51,7.63,9.75,11.45C524.71,350,525.46,350,526.17,349Z" transform="translate(-210.14 -217.86)"/><path class="cls-2" d="M310.42,357.64a10.28,10.28,0,0,0-3.34,5.12,16.63,16.63,0,0,1-2,4.33c-2.64,4-7.46,4-10.05,0-.69-1.07-1.23-2.24-1.82-3.37-.37-.7-.67-1.45-1.08-2.14-2.11-3.53-5.48-3.66-7.86-.29a37.25,37.25,0,0,0-3.08,5.95,54.59,54.59,0,0,1-3.16,6.19,14.25,14.25,0,0,1-1.73,2.28c-2.69,2.77-6.12,2.85-8.94.21a17,17,0,0,1-4.82-8.95,47.84,47.84,0,0,1-.35-20c.42.84-.14,1.89.48,2.8a4.43,4.43,0,0,0,2.25-1.79c3.81-4.49,7.58-9,11.38-13.52,2.16-2.56,4.3-5.12,6.52-7.63,1.65-1.86,2.39-1.75,3.92.26q3,4,6.16,7.92c5.2,6.65,10.58,13.16,15.29,20.18A7.18,7.18,0,0,0,310.42,357.64Z" transform="translate(-210.14 -217.86)"/><path class="cls-4" d="M296.43,447.71c.4-.49.76-1,1.19-1.48a3.21,3.21,0,0,1,3.67-1,26.52,26.52,0,0,1,4.93,2.42,31,31,0,0,0,8.3,3.61,8.57,8.57,0,0,0,2.13.26c2.25,0,3-1,2-3-1.47-2.92-3.1-5.76-4.78-8.57a102.54,102.54,0,0,0-16.7-21.16c-2.29-2.22-4.39-4.63-6.58-6.95a5.68,5.68,0,0,1-1.4-2.48,3.35,3.35,0,0,1,4.87-3.92,38.33,38.33,0,0,1,5.26,4.14A97.26,97.26,0,0,1,317.87,431a90,90,0,0,1,8,15,5.51,5.51,0,0,0,.31.65c.65,1.18,1.12,1.24,1.88.18a14.14,14.14,0,0,0,2-4.33,29.12,29.12,0,0,0,1-9.47,3.61,3.61,0,0,1,1.51-3.34c1.61-1.14,3.35-.78,4.53,1a10.4,10.4,0,0,1,1.58,5c.22,2.46.38,4.92.56,7.38a18.07,18.07,0,0,1-8,13,3.41,3.41,0,0,0-1.62,4c1.9,9.32,1.66,18.73,1,28.14-.17,2.38-1.47,3.65-3.6,3.61a3.51,3.51,0,0,1-3.62-3.65,43,43,0,0,1,.15-7.18c.66-6.24,0-12.44-.76-18.61-.29-2.25-.61-2.49-2.95-2.5a32.74,32.74,0,0,1-9.24-1A23.29,23.29,0,0,1,296.43,447.71Z" transform="translate(-210.14 -217.86)"/><path class="cls-4" d="M448.45,441.55a69.81,69.81,0,0,1,1.1-8,7,7,0,0,1,.67-2,3.56,3.56,0,0,1,4.21-1.9,3.73,3.73,0,0,1,2.1,3.92A22.42,22.42,0,0,0,459.46,447c.08.14.14.29.23.42.74,1,1.45.93,1.86-.25a64.26,64.26,0,0,1,3.71-8,94.36,94.36,0,0,1,12.35-18.45,123.84,123.84,0,0,1,13.75-13.64,15.52,15.52,0,0,1,1.75-1.26c1.2-.76,2.42-1.25,3.76-.23a3.74,3.74,0,0,1,1.45,4.23,5.49,5.49,0,0,1-1.53,2.39c-3.25,3.3-6.49,6.6-9.67,10a102.44,102.44,0,0,0-13.5,18.52c-1.61,2.76-3.11,5.58-4.46,8.48-.81,1.73-.42,2.36,1.48,2.38a18.4,18.4,0,0,0,7.59-2c1.38-.62,2.67-1.43,4-2.14.92-.49,1.82-1,2.77-1.42,2.88-1.26,3.76-1,5.7,1.54a8.17,8.17,0,0,0,.63.69,23.67,23.67,0,0,1-18.88,11.46c-1.51.12-3,0-4.55,0-1.91,0-2.23.23-2.52,2.1a81.45,81.45,0,0,0-1.07,14.55c.09,3.43.26,6.86.4,10.29a6.52,6.52,0,0,1-.34,2.59,3.93,3.93,0,0,1-4.14,2.57c-1.6-.21-2.48-1.09-2.71-3.14a104.89,104.89,0,0,1-.59-15.55,79.9,79.9,0,0,1,1.48-13.79c.35-1.64-.56-2.5-1.76-3.31a17.91,17.91,0,0,1-7.37-10.29A21.51,21.51,0,0,1,448.45,441.55Z" transform="translate(-210.14 -217.86)"/><path class="cls-2" d="M393.65,480.06c-8.32,0-16.63,0-24.94,0q-13.06,0-26.14-.15a8.43,8.43,0,0,1-2.13-.23,3.13,3.13,0,0,1-2.54-2.84,3.48,3.48,0,0,1,1.64-3.49,5.11,5.11,0,0,1,2-.75,23.38,23.38,0,0,1,3.83-.23h90.42c2.71,0,5.43-.06,8.15-.07a5.22,5.22,0,0,1,4.46,1.88c1.86,2.39.74,5.3-2.24,5.75a17.32,17.32,0,0,1-2.39.12H393.65Z" transform="translate(-210.14 -217.86)"/><path class="cls-4" d="M345.82,387.24" transform="translate(-210.14 -217.86)"/><path class="cls-5" d="M307.74,341.74c10.65,12.79,21.14,25.71,32.07,38.26" transform="translate(-210.14 -217.86)"/><path class="cls-5" d="M304.41,337.42" transform="translate(-210.14 -217.86)"/><path class="cls-4" d="M347.7,389.59c0,3,.06,5.74.05,8.32-.86.08-1.16-.58-1.55-1-1.73-1.87-3.48-3.74-5.08-5.72-8.4-10.44-17.27-20.49-25.37-31.17-1.33-1.76-3-2.88-5.33-2.45a7.06,7.06,0,0,1-2.26-2.41c-4.71-7-10.09-13.54-15.29-20.18-2.07-2.64-4.13-5.27-6.16-7.93-1.53-2-2.27-2.11-3.92-.25-2.22,2.5-4.36,5.07-6.52,7.62-3.8,4.51-7.57,9-11.38,13.53a9.18,9.18,0,0,1-3.3,2.48c-.62-.92,1.21-9.67.63-5.18.43-3.5.15-3.55,1.13-6,3.33-2.51,5.9-5.78,8.51-9,3-3.71,6.38-7.12,9.65-10.59,2.58-2.72,4.95-2.72,7.69-.21a16.44,16.44,0,0,1,2.31,2.41c2.58,3.54,5.41,6.88,8.3,10.17" transform="translate(-210.14 -217.86)"/><path class="cls-4" d="M499.28,319.05c2.3-2.07,4.83-2,7,.14,1.65,1.62,3.19,3.36,4.68,5.14,2.55,3,5.32,5.92,7.6,9.19,2,2.07,2.18,2.4,4,4.16.89.24,1.2,1.37,2.2,1.44a15.11,15.11,0,0,1,1,6,5.47,5.47,0,0,1,.07.75,10.31,10.31,0,0,1,.3,3.08c-.71,1-1.45,1.07-2.27.11q-4.87-5.73-9.76-11.45c-3.16-3.68-6.28-7.41-9.53-11-1.66-1.84-2.32-1.13-3.38.22-7.29,9.36-14.69,18.63-21.7,28.19-.61.84-1.19,1.7-1.78,2.54-2.74-.41-4.47,1.09-6,3.07q-12.92,16.17-25.88,32.3a29.63,29.63,0,0,1-2.9,3.2,39.73,39.73,0,0,1-.05-8" transform="translate(-210.14 -217.86)"/><path class="cls-4" d="M492.63,325.91" transform="translate(-210.14 -217.86)"/><path class="cls-6" d="M421.57,445.77V452c0,3.27,0,6.55,0,9.82,0,1.73-.12,1.9-1.89,1.93-2.07,0-4.15-.06-6.22-.06H370.11l-2.16,0a1.47,1.47,0,0,1-1.61-1.65V445.25c8.77,5,17.67,8.32,27.63,8.39S412.74,450.73,421.57,445.77Z" transform="translate(-210.14 -217.86)"/><path class="cls-2" d="M393.47,496.07H365.89c-2.63,0-5.27,0-7.91,0a7.48,7.48,0,0,1-2.36-.32,3.34,3.34,0,0,1-2.57-3.11,3.63,3.63,0,0,1,2.07-3.51,6.68,6.68,0,0,1,3.27-.55c7.92,0,15.83-.05,23.74-.05h45.81a12.06,12.06,0,0,1,3.34.24,3.59,3.59,0,0,1,2.92,3.85c0,1.84-1,2.94-3.09,3.37a9.35,9.35,0,0,1-1.9.19H393.47Z" transform="translate(-210.14 -217.86)"/><path class="cls-2" d="M224.14,329.14a24.2,24.2,0,0,1,11.78,16.47,20,20,0,0,1,.38,5.46c0,.49-.09,1-.57,1.23s-.89-.18-1.25-.51a31.43,31.43,0,0,1-7.29-9.38,36.76,36.76,0,0,1-3.46-11.62,4.3,4.3,0,0,1,0-1C223.76,329.7,223.89,329.57,224.14,329.14Z" transform="translate(-210.14 -217.86)"/><path class="cls-2" d="M564.08,329.24a26,26,0,0,1-1.45,8.83,29.93,29.93,0,0,1-8.77,13.21c-.45.4-.87,1.14-1.59.76s-.57-1.1-.6-1.73a16.62,16.62,0,0,1,.4-4.76,27.3,27.3,0,0,1,7.3-13.23A11.65,11.65,0,0,1,564.08,329.24Z" transform="translate(-210.14 -217.86)"/><path class="cls-2" d="M260,269.54c0,4.38-1.77,8.21-3.68,12a71.46,71.46,0,0,1-6.22,9.65c-1.18,1.62-1.71,1.62-2.81,0-3.84-5.7-6.6-11.82-7.36-18.73a17.25,17.25,0,0,1,.66-6.86c1.48-5.07,5.41-7.59,10.77-7a10.37,10.37,0,0,1,8.63,9.25C260,268.42,260,269,260,269.54Z" transform="translate(-210.14 -217.86)"/><path class="cls-2" d="M548.24,271.06a38.32,38.32,0,0,1-1.16,7.08,44.19,44.19,0,0,1-6.6,13.2c-.91,1.3-1.48,1.34-2.37.1-4.06-5.64-8-11.36-9.67-18.27a15.14,15.14,0,0,1-.31-6.63,9.72,9.72,0,0,1,8.72-8c5-.43,8.43,1.68,10.15,6.18A20,20,0,0,1,548.24,271.06Z" transform="translate(-210.14 -217.86)"/><path class="cls-4" d="M368,278.35h45.32a30.7,30.7,0,0,1,3.84.07,10.27,10.27,0,0,1,7.53,4.14c2.55,3.58,6.07,5,10.36,4.9,11.18-.17,22.37-.26,33.56-.41a51.47,51.47,0,0,1,6.45.4c3.32.36,4.86,3.37,3.33,6.36a3.33,3.33,0,0,1-3.14,1.85c-7.9.08-15.8.42-23.72.13a173.26,173.26,0,0,0-18.93.09,13.93,13.93,0,0,1-10.75-3.77c-1-.91-1.94-1.9-2.87-2.89a7.19,7.19,0,0,0-5.12-2.27c-.8,0-1.6,0-2.4,0H319.39c-3.53-.13-5.11-2.16-4.34-5.54a3.64,3.64,0,0,1,3.33-3,19.57,19.57,0,0,1,2.87-.11H368Z" transform="translate(-210.14 -217.86)"/><path class="cls-4" d="M387.1,257.66c10.08,0,20.15.1,30.23,0,6-.07,10.91,1.8,14.65,6.64,1.72,2.24,4.25,3,7,3q7.92,0,15.83.05a7.47,7.47,0,0,1,1.9.17,4.66,4.66,0,0,1,3,6.33,2.6,2.6,0,0,1-2.25,1.57c-1,.07-2.07.14-3.11.14-6.4,0-12.8-.08-19.19,0a9.44,9.44,0,0,1-8.42-4.15c-2.92-4.13-6.91-5.5-11.84-5.32-6.39.24-12.79.13-19.19.14H355.19a9.86,9.86,0,0,1-2.86-.24,4.44,4.44,0,0,1-3.52-4,4.6,4.6,0,0,1,3.53-4.06,10.14,10.14,0,0,1,2.14-.17C365.35,257.5,376.23,257.66,387.1,257.66Z" transform="translate(-210.14 -217.86)"/><path class="cls-4" d="M326.17,314.76a5.27,5.27,0,0,1-5.56,5.26,4.84,4.84,0,0,1-5-5.15c0-3.26,2.05-5.42,5.07-5.42A5.26,5.26,0,0,1,326.17,314.76Z" transform="translate(-210.14 -217.86)"/><path class="cls-4" d="M474,314.58c0,3.3-1.92,5.37-5,5.43a4.73,4.73,0,0,1-5.16-5c-.05-3.43,1.89-5.49,5.19-5.5S474,311.35,474,314.58Z" transform="translate(-210.14 -217.86)"/><path class="cls-4" d="M336.46,342.22c-3.32,0-4.94-1.6-5-5s1.65-5.15,4.83-5.18a5.2,5.2,0,0,1,5.64,5.16A5.07,5.07,0,0,1,336.46,342.22Z" transform="translate(-210.14 -217.86)"/><path class="cls-4" d="M452.07,342.22c-3.24,0-4.9-1.61-4.95-4.82-.05-3.41,1.81-5.39,5-5.37a5.23,5.23,0,0,1,5.31,5.32C457.44,340.26,455.28,342.21,452.07,342.22Z" transform="translate(-210.14 -217.86)"/></svg>